<svg width="100" height="104" viewBox="0 0 100 104" fill="none" xmlns="http://www.w3.org/2000/svg">
<rect width="100" height="104" fill="white"/>
<path d="M36.0013 52L63.2 31.6C63.688 31.2351 64.0841 30.7614 64.3569 30.2166C64.6298 29.6718 64.7719 29.0709 64.7719 28.4615C64.7719 27.8522 64.6298 27.2513 64.3569 26.7065C64.0841 26.1617 63.688 25.688 63.2 25.3231L31.8154 1.78462C31.2325 1.34748 30.5395 1.08128 29.8139 1.01585C29.0882 0.950425 28.3587 1.08835 27.7071 1.41417C27.0555 1.73999 26.5074 2.24084 26.1244 2.8606C25.7414 3.48035 25.5385 4.19452 25.5385 4.92308V44.1538L8.27694 31.2077C7.86479 30.8986 7.39579 30.6737 6.89673 30.5458C6.39766 30.418 5.87829 30.3896 5.36829 30.4625C4.85828 30.5354 4.36761 30.708 3.92431 30.9704C3.481 31.2329 3.09374 31.5802 2.78463 31.9923C2.47552 32.4045 2.25061 32.8734 2.12275 33.3725C1.99489 33.8716 1.96659 34.391 2.03945 34.901C2.1123 35.411 2.2849 35.9016 2.54738 36.3449C2.80987 36.7882 3.1571 37.1755 3.56924 37.4846L22.9218 52L3.56924 66.5154C3.1571 66.8245 2.80987 67.2118 2.54738 67.6551C2.2849 68.0984 2.1123 68.589 2.03945 69.099C1.8923 70.129 2.16035 71.1753 2.78463 72.0077C3.40891 72.8401 4.33828 73.3903 5.36829 73.5375C6.39829 73.6846 7.44457 73.4166 8.27694 72.7923L25.5385 59.8461V99.0769C25.5385 99.8055 25.7414 100.52 26.1244 101.139C26.5074 101.759 27.0555 102.26 27.7071 102.586C28.3587 102.912 29.0882 103.05 29.8139 102.984C30.5395 102.919 31.2325 102.653 31.8154 102.215L63.2 78.6769C63.688 78.312 64.0841 77.8383 64.3569 77.2935C64.6298 76.7487 64.7719 76.1478 64.7719 75.5385C64.7719 74.9291 64.6298 74.3282 64.3569 73.7834C64.0841 73.2386 63.688 72.7649 63.2 72.4L36.0013 52ZM33.3846 12.7692L54.3064 28.4615L33.3846 44.1538V12.7692ZM33.3846 91.2308V59.8461L54.3064 75.5385L33.3846 91.2308Z" fill="#ECE9F2"/>
<path fill-rule="evenodd" clip-rule="evenodd" d="M78.2998 63.3887C79.6757 64.3366 81.5691 64.0034 82.5286 62.6445C84.76 59.4848 86.0691 55.6388 86.0691 51.4997C86.0691 47.3607 84.76 43.5147 82.5286 40.3549C81.5691 38.9962 79.6757 38.6629 78.2998 39.6106C76.9242 40.5586 76.5868 42.4287 77.5463 43.7874C79.0898 45.9729 79.9946 48.6276 79.9946 51.4997C79.9946 54.3719 79.0898 57.0266 77.5463 59.2119C76.5868 60.5708 76.9242 62.4408 78.2998 63.3887Z" fill="#ECE9F2"/>
<path fill-rule="evenodd" clip-rule="evenodd" d="M87.8145 70.4351C89.1761 71.4026 91.0741 71.0967 92.0536 69.7517C95.7955 64.6142 98 58.307 98 51.5C98 44.6931 95.7955 38.3857 92.0536 33.2482C91.0741 31.9034 89.1761 31.5974 87.8145 32.5648C86.4529 33.5323 86.1431 35.407 87.1226 36.7522C90.1456 40.9027 91.9255 45.9918 91.9255 51.5C91.9255 57.0083 90.1456 62.0972 87.1226 66.2479C86.1431 67.5929 86.4529 69.4676 87.8145 70.4351Z" fill="#ECE9F2"/>
</svg>
