<svg width="96" height="102" viewBox="0 0 96 102" fill="none" xmlns="http://www.w3.org/2000/svg">
<path d="M34.0013 51L61.2 30.6C61.688 30.2351 62.0841 29.7614 62.3569 29.2166C62.6298 28.6718 62.7719 28.0709 62.7719 27.4615C62.7719 26.8522 62.6298 26.2513 62.3569 25.7065C62.0841 25.1617 61.688 24.688 61.2 24.3231L29.8154 0.784617C29.2325 0.34748 28.5395 0.0812828 27.8139 0.0158538C27.0882 -0.0495751 26.3587 0.0883487 25.7071 0.414172C25.0555 0.739994 24.5074 1.24084 24.1244 1.86059C23.7414 2.48035 23.5385 3.19452 23.5385 3.92308V43.1538L6.27694 30.2077C5.86479 29.8986 5.39579 29.6737 4.89673 29.5458C4.39766 29.418 3.87829 29.3896 3.36829 29.4625C2.85828 29.5354 2.36761 29.708 1.92431 29.9704C1.481 30.2329 1.09374 30.5802 0.78463 30.9923C0.475518 31.4045 0.250613 31.8734 0.122753 32.3725C-0.00510584 32.8716 -0.0334132 33.3909 0.0394451 33.901C0.112303 34.411 0.2849 34.9016 0.547384 35.3449C0.809868 35.7882 1.1571 36.1755 1.56924 36.4846L20.9218 51L1.56924 65.5154C1.1571 65.8245 0.809868 66.2118 0.547384 66.6551C0.2849 67.0984 0.112303 67.589 0.0394451 68.099C-0.107699 69.129 0.160351 70.1753 0.78463 71.0077C1.40891 71.8401 2.33828 72.3904 3.36829 72.5375C4.39829 72.6846 5.44457 72.4166 6.27694 71.7923L23.5385 58.8461V98.0769C23.5385 98.8055 23.7414 99.5197 24.1244 100.139C24.5074 100.759 25.0555 101.26 25.7071 101.586C26.3587 101.912 27.0882 102.05 27.8139 101.984C28.5395 101.919 29.2325 101.653 29.8154 101.215L61.2 77.6769C61.688 77.312 62.0841 76.8383 62.3569 76.2935C62.6298 75.7487 62.7719 75.1478 62.7719 74.5385C62.7719 73.9291 62.6298 73.3282 62.3569 72.7834C62.0841 72.2386 61.688 71.7649 61.2 71.4L34.0013 51ZM31.3846 11.7692L52.3064 27.4615L31.3846 43.1538V11.7692ZM31.3846 90.2308V58.8461L52.3064 74.5385L31.3846 90.2308Z" fill="#ECE9F2"/>
<path fill-rule="evenodd" clip-rule="evenodd" d="M85.8146 69.4351C87.1762 70.4026 89.0742 70.0967 90.0537 68.7517C93.7956 63.6142 96 57.307 96 50.5C96 43.6931 93.7956 37.3857 90.0537 32.2482C89.0742 30.9034 87.1762 30.5974 85.8146 31.5648C84.453 32.5323 84.1432 34.407 85.1227 35.7522C88.1457 39.9026 89.9255 44.9918 89.9255 50.5C89.9255 56.0083 88.1457 61.0972 85.1227 65.2479C84.1432 66.5929 84.453 68.4676 85.8146 69.4351ZM76.2998 62.3887C77.6757 63.3366 79.5691 63.0034 80.5286 61.6445C82.76 58.4847 84.0691 54.6388 84.0691 50.4997C84.0691 46.3607 82.76 42.5147 80.5286 39.3549C79.5691 37.9962 77.6757 37.6629 76.2998 38.6106C74.9242 39.5586 74.5868 41.4287 75.5463 42.7874C77.0898 44.9729 77.9946 47.6276 77.9946 50.4997C77.9946 53.3719 77.0898 56.0266 75.5463 58.2119C74.5868 59.5708 74.9242 61.4408 76.2998 62.3887Z" fill="#ECE9F2"/>
</svg>
