<svg width="15" height="24" viewBox="0 0 15 24" fill="none" xmlns="http://www.w3.org/2000/svg">
<path d="M8.00031 12L14.4 7.2C14.5148 7.11413 14.608 7.00268 14.6722 6.87449C14.7364 6.7463 14.7698 6.60491 14.7698 6.46154C14.7698 6.31817 14.7364 6.17678 14.6722 6.04859C14.608 5.9204 14.5148 5.80894 14.4 5.72308L7.01539 0.184616C6.87825 0.08176 6.71517 0.0191254 6.54444 0.00373031C6.3737 -0.0116647 6.20206 0.0207879 6.04873 0.0974521C5.8954 0.174116 5.76645 0.291963 5.67633 0.437787C5.5862 0.583611 5.53846 0.751651 5.53846 0.923077V10.1538L1.47693 7.10769C1.37995 7.03496 1.2696 6.98204 1.15217 6.95196C1.03474 6.92187 0.912539 6.91521 0.792538 6.93235C0.672536 6.9495 0.557085 6.99011 0.452778 7.05187C0.348472 7.11363 0.257351 7.19533 0.184619 7.29231C0.111887 7.38928 0.0589677 7.49964 0.0288832 7.61706C-0.00120138 7.73449 -0.00786193 7.85669 0.0092812 7.9767C0.0264243 8.0967 0.0670353 8.21215 0.128796 8.31645C0.190557 8.42076 0.272258 8.51188 0.369234 8.58461L4.92277 12L0.369234 15.4154C0.272258 15.4881 0.190557 15.5792 0.128796 15.6835C0.0670353 15.7879 0.0264243 15.9033 0.0092812 16.0233C-0.0253409 16.2657 0.0377296 16.5118 0.184619 16.7077C0.331508 16.9035 0.550183 17.033 0.792538 17.0676C1.03489 17.1023 1.28107 17.0392 1.47693 16.8923L5.53846 13.8462V23.0769C5.53846 23.2483 5.5862 23.4164 5.67633 23.5622C5.76645 23.708 5.8954 23.8259 6.04873 23.9025C6.20206 23.9792 6.3737 24.0117 6.54444 23.9963C6.71517 23.9809 6.87825 23.9182 7.01539 23.8154L14.4 18.2769C14.5148 18.1911 14.608 18.0796 14.6722 17.9514C14.7364 17.8232 14.7698 17.6818 14.7698 17.5385C14.7698 17.3951 14.7364 17.2537 14.6722 17.1255C14.608 16.9973 14.5148 16.8859 14.4 16.8L8.00031 12ZM7.38462 2.76923L12.3074 6.46154L7.38462 10.1538V2.76923ZM7.38462 21.2308V13.8462L12.3074 17.5385L7.38462 21.2308Z" fill="#690CEB"/>
</svg>
