<svg width="24" height="24" viewBox="0 0 24 24" fill="none" xmlns="http://www.w3.org/2000/svg">
<g clip-path="url(#clip0_113_206)">
<path fill-rule="evenodd" clip-rule="evenodd" d="M11.9877 0C5.3642 0 0 5.37567 0 12C0 18.6243 5.3642 24 11.9877 24C18.6242 24 24 18.6237 24 12C24 5.3763 18.6242 0 11.9877 0ZM1.81772 12C1.81772 6.37438 6.37437 1.81775 12 1.81775C17.6256 1.81775 22.1823 6.37438 22.1823 12C22.1823 17.6257 17.6256 22.1823 12 22.1823C6.37437 22.1823 1.81772 17.6257 1.81772 12ZM11.0912 6.16178V12.9088H12.9088V6.16178H11.0912ZM11.0912 16.0209V17.8386H12.9088V16.0209H11.0912Z" fill="#D3444F"/>
</g>
<defs>
<clipPath id="clip0_113_206">
<rect width="24" height="24" fill="white"/>
</clipPath>
</defs>
</svg>
