<svg width="23" height="20" viewBox="0 0 23 20" fill="none" xmlns="http://www.w3.org/2000/svg">
<g clip-path="url(#clip0_37_595)">
<rect y="-2" width="23" height="20" fill="white"/>
<path d="M11.5 6.80005C9.76977 6.80005 8.36365 8.2347 8.36365 10C8.36365 11.7654 9.76977 13.2 11.5 13.2C13.2302 13.2 14.6364 11.7654 14.6364 10C14.6364 8.2347 13.2302 6.80005 11.5 6.80005Z" fill="black"/>
<path d="M11.5 2C6.27272 2 1.80865 5.3173 0 10C1.80865 14.6827 6.27272 18 11.5 18C16.7325 18 21.1913 14.6827 23 10C21.1913 5.3173 16.7325 2 11.5 2ZM11.5 15.3333C8.61455 15.3333 6.27272 12.9439 6.27272 9.99995C6.27272 7.05595 8.61455 4.66665 11.5 4.66665C14.3855 4.66665 16.7273 7.056 16.7273 10C16.7273 12.944 14.3855 15.3333 11.5 15.3333Z" fill="black"/>
</g>
<defs>
<clipPath id="clip0_37_595">
<rect width="23" height="20" fill="white"/>
</clipPath>
</defs>
</svg>
