<svg width="22" height="22" viewBox="0 0 22 22" fill="none" xmlns="http://www.w3.org/2000/svg">
<g clip-path="url(#clip0_37_826)">
<path d="M20.9266 8.40767L17.3708 4.85192C17.1979 4.68495 16.9664 4.59255 16.726 4.59464C16.4857 4.59673 16.2558 4.69313 16.0858 4.86309C15.9159 5.03305 15.8195 5.26296 15.8174 5.50331C15.8153 5.74365 15.9077 5.9752 16.0747 6.14809L19.6304 9.70384C19.7361 9.81157 19.8284 9.9316 19.9054 10.0613C19.8917 10.0613 19.8807 10.054 19.8669 10.054L5.48991 10.0833C5.24679 10.0833 5.01364 10.1799 4.84173 10.3518C4.66982 10.5237 4.57324 10.7569 4.57324 11C4.57324 11.2431 4.66982 11.4763 4.84173 11.6482C5.01364 11.8201 5.24679 11.9167 5.48991 11.9167L19.8614 11.8873C19.8871 11.8873 19.9082 11.8745 19.9329 11.8727C19.8516 12.0277 19.7485 12.1704 19.6267 12.2962L16.071 15.8519C15.9834 15.9365 15.9136 16.0376 15.8656 16.1495C15.8175 16.2613 15.7922 16.3816 15.7912 16.5033C15.7901 16.625 15.8133 16.7457 15.8594 16.8584C15.9055 16.971 15.9736 17.0734 16.0596 17.1595C16.1457 17.2455 16.248 17.3136 16.3607 17.3597C16.4734 17.4058 16.5941 17.429 16.7158 17.4279C16.8375 17.4268 16.9578 17.4016 17.0696 17.3535C17.1815 17.3055 17.2826 17.2356 17.3672 17.1481L20.9229 13.5923C21.6103 12.9047 21.9965 11.9723 21.9965 11C21.9965 10.0277 21.6103 9.09527 20.9229 8.40767H20.9266Z" fill="#690CEB"/>
<path d="M6.41667 20.1667H4.58333C3.85399 20.1667 3.15451 19.8769 2.63879 19.3612C2.12306 18.8455 1.83333 18.146 1.83333 17.4167V4.58333C1.83333 3.85399 2.12306 3.15451 2.63879 2.63879C3.15451 2.12306 3.85399 1.83333 4.58333 1.83333H6.41667C6.65978 1.83333 6.89294 1.73676 7.06485 1.56485C7.23676 1.39294 7.33333 1.15978 7.33333 0.916667C7.33333 0.673552 7.23676 0.440394 7.06485 0.268485C6.89294 0.0965771 6.65978 0 6.41667 0L4.58333 0C3.3682 0.00145554 2.20326 0.484808 1.34403 1.34403C0.484808 2.20326 0.00145554 3.3682 0 4.58333L0 17.4167C0.00145554 18.6318 0.484808 19.7967 1.34403 20.656C2.20326 21.5152 3.3682 21.9985 4.58333 22H6.41667C6.65978 22 6.89294 21.9034 7.06485 21.7315C7.23676 21.5596 7.33333 21.3264 7.33333 21.0833C7.33333 20.8402 7.23676 20.6071 7.06485 20.4352C6.89294 20.2632 6.65978 20.1667 6.41667 20.1667Z" fill="#690CEB"/>
</g>
<defs>
<clipPath id="clip0_37_826">
<rect width="22" height="22" fill="white"/>
</clipPath>
</defs>
</svg>
