<svg width="21" height="21" viewBox="0 0 21 21" fill="none" xmlns="http://www.w3.org/2000/svg">
<g clip-path="url(#clip0_124_200)">
<path d="M18.6695 0C19.2919 0 19.8772 0.242409 20.3173 0.682526C20.7576 1.12264 21 1.70792 21 2.33036C21 2.9528 20.7576 3.53808 20.3173 3.9782C19.8772 4.41831 19.2921 4.66088 18.6696 4.66088C18.2579 4.66088 17.8628 4.55418 17.515 4.35503L15.9011 5.96889L19.3007 9.36871C19.738 9.80594 19.9788 10.3891 19.9788 11.0106C19.9788 11.6321 19.738 12.2151 19.3007 12.6522L11.6311 20.322C11.1941 20.7592 10.6109 21 9.98939 21C9.3679 21 8.78487 20.7592 8.34764 20.322L0.67804 12.6522C0.240807 12.2151 0 11.6321 0 11.0106C0 10.389 0.240807 9.80594 0.67804 9.36871L8.3478 1.6991C8.78487 1.26187 9.3679 1.02106 9.98939 1.02106C10.6109 1.02106 11.1941 1.26187 11.6311 1.6991L15.0309 5.09892L16.6448 3.48505C16.4457 3.13705 16.3391 2.74212 16.3391 2.33036C16.3391 1.70792 16.5815 1.12264 17.0216 0.682526C17.4618 0.242409 18.0469 0 18.6695 0ZM9.98939 2.25153C9.69667 2.25153 9.42254 2.36433 9.21778 2.56924L1.54802 10.2388C1.34326 10.4436 1.23047 10.7177 1.23047 11.0106C1.23047 11.3033 1.34326 11.5773 1.54802 11.7821L9.21778 19.452C9.42254 19.6567 9.69667 19.7695 9.98939 19.7695C10.2823 19.7695 10.5564 19.6567 10.7612 19.452L18.4308 11.7822C18.6357 11.5773 18.7485 11.3033 18.7485 11.0106C18.7485 10.7177 18.6357 10.4436 18.4308 10.2388L14.5969 6.40501L14.596 6.40405L14.5952 6.40324L10.7612 2.56924C10.5564 2.36433 10.2823 2.25153 9.98939 2.25153ZM9.98955 6.6958C11.142 6.6958 12.2255 7.14457 13.0404 7.95943C14.7227 9.64188 14.7227 12.379 13.0404 14.0615C12.2255 14.8763 11.142 15.3253 9.98939 15.3253C8.83694 15.3253 7.7534 14.8763 6.93853 14.0615C6.1235 13.2466 5.67474 12.1631 5.67474 11.0106C5.67474 9.85817 6.1235 8.77462 6.93853 7.95959C7.7534 7.14457 8.83694 6.6958 9.98955 6.6958ZM9.98955 7.92627C9.16571 7.92627 8.39106 8.24718 7.80851 8.82973C7.22596 9.41212 6.9052 10.1868 6.9052 11.0106C6.9052 11.8344 7.22596 12.6088 7.80851 13.1913C8.39106 13.7739 9.16555 14.0948 9.98939 14.0948C10.8132 14.0948 11.5877 13.7739 12.1703 13.1913C13.3729 11.9887 13.3729 10.0322 12.1704 8.82957C11.5879 8.24702 10.8134 7.92627 9.98955 7.92627ZM18.6695 1.23047C18.3756 1.23047 18.0994 1.34486 17.8918 1.55267C17.684 1.76047 17.5696 2.03652 17.5696 2.33052C17.5696 2.6242 17.684 2.90041 17.8918 3.10806C18.0996 3.31602 18.3758 3.43041 18.6696 3.43041C18.9633 3.43041 19.2395 3.31602 19.4473 3.10822C19.6551 2.90041 19.7695 2.6242 19.7695 2.33036C19.7695 2.03652 19.6551 1.76047 19.4473 1.55267C19.2395 1.34486 18.9633 1.23047 18.6695 1.23047Z" fill="black"/>
<path d="M3 3L17 18" stroke="black" stroke-linecap="round"/>
<path d="M3 2L19 19" stroke="white" stroke-linecap="round"/>
</g>
<defs>
<clipPath id="clip0_124_200">
<rect width="21" height="21" fill="white"/>
</clipPath>
</defs>
</svg>
