<svg width="25" height="30" viewBox="0 0 25 30" fill="none" xmlns="http://www.w3.org/2000/svg">
<path d="M21.5136 19.506L21.4714 19.5339C20.6842 18.7107 19.658 18.1385 18.5052 17.9015C19.6722 18.0968 20.7265 18.6828 21.5136 19.506Z" fill="#1ED49B"/>
<path d="M0.680664 19.506C1.4679 18.6828 2.52222 18.0968 3.68899 17.9015C2.53627 18.1385 1.51006 18.7107 0.722842 19.5339L0.680664 19.506Z" fill="#1ED49B"/>
<path fill-rule="evenodd" clip-rule="evenodd" d="M5.62268 7.32527C5.62268 11.3646 8.93324 14.6505 13.003 14.6505C17.0725 14.6505 20.3831 11.3646 20.3831 7.32527C20.3831 3.2859 17.0725 0 13.003 0C8.93324 0 5.62268 3.2859 5.62268 7.32527ZM7.73131 7.32439C7.73131 4.43894 10.0958 2.09206 13.003 2.09206C15.9101 2.09206 18.2745 4.43894 18.2745 7.32439C18.2745 10.2099 15.9101 12.5567 13.003 12.5567C10.0958 12.5567 7.73131 10.2099 7.73131 7.32439Z" fill="#690CEB"/>
<path d="M9.48886 30H1.05432C0.472335 30 0 29.5313 0 28.9537V23.3725C0 19.7182 2.99567 16.7449 6.67735 16.7449H19.3292C21.1497 16.7449 22.9041 17.4899 24.1425 18.7889L22.6116 20.2275C21.7681 19.3443 20.5719 18.8377 19.3292 18.8377H6.67735C4.15822 18.8377 2.10863 20.872 2.10863 23.3725V27.9072H9.48886V30Z" fill="#690CEB"/>
</svg>
