<svg width="23" height="20" viewBox="0 0 23 20" fill="none" xmlns="http://www.w3.org/2000/svg">
<rect width="23" height="20" fill="white"/>
<path d="M11.325 6.33159L14.6174 9.64738L14.6331 9.47369C14.6331 7.73157 13.2273 6.3158 11.4974 6.3158L11.325 6.33159Z" fill="black"/>
<path d="M11.4974 4.21054C14.3822 4.21054 16.7235 6.56846 16.7235 9.47372C16.7235 10.1527 16.5876 10.8 16.3524 11.3948L19.4097 14.4737C20.988 13.1474 22.2318 11.4316 23 9.47372C21.1866 4.85268 16.7287 1.57898 11.4974 1.57898C10.0341 1.57898 8.63357 1.84212 7.33228 2.31581L9.58994 4.58421C10.1804 4.35265 10.8232 4.21054 11.4974 4.21054Z" fill="black"/>
<path d="M1.0452 1.34211L3.42829 3.74211L3.90388 4.22107C2.17927 5.57897 0.815268 7.38425 0 9.47369C1.80824 14.0947 6.27129 17.3684 11.4974 17.3684C13.1175 17.3684 14.6644 17.0526 16.0807 16.4789L16.5249 16.9263L19.5717 20L20.9044 18.6632L2.37785 0L1.0452 1.34211ZM6.82527 7.15792L8.44013 8.78423C8.39309 9.01057 8.36173 9.23685 8.36173 9.47369C8.36173 11.2158 9.76753 12.6316 11.4974 12.6316C11.7326 12.6316 11.9573 12.6 12.1768 12.5526L13.7916 14.179C13.0966 14.5263 12.3231 14.7369 11.4974 14.7369C8.61259 14.7369 6.27129 12.379 6.27129 9.47369C6.27129 8.64213 6.48035 7.86316 6.82527 7.15792Z" fill="black"/>
</svg>
