<svg width="201" height="83" viewBox="0 0 201 83" fill="none" xmlns="http://www.w3.org/2000/svg">
	<path d="M73.1075 10.375H10.9177V69.1667H73.1075V10.375Z" fill="#690CEB" />
	<path
		d="M60.9789 47.4269C45.9261 47.4134 33.7259 35.8833 33.7067 21.6531V17.9407C33.7115 15.8196 35.5292 14.1013 37.7727 14.0968H46.0872C48.3308 14.1013 50.1485 15.8196 50.1533 17.9407V21.6531C50.1582 27.3033 55.0019 31.8825 60.9789 31.887H65.1143C66.1997 31.8892 67.239 32.3005 68.0025 33.0298C68.7656 33.7591 69.1897 34.7462 69.1807 35.772V43.6241C69.1755 45.7451 67.3579 47.4632 65.1143 47.468L60.9789 47.4269Z"
		fill="white" />
	<path
		d="M46.0869 14.5044C48.0906 14.5089 49.7139 16.0433 49.7184 17.9376V21.6501C49.7184 27.547 54.7753 32.3275 61.0132 32.3275H65.1486C67.1441 32.3456 68.7503 33.8824 68.7455 35.7689V43.621C68.7455 45.5172 67.1195 47.0541 65.114 47.0541H60.9782C46.1486 47.0406 34.1359 35.6693 34.1407 21.6501V17.9376C34.1454 16.0433 35.7687 14.5089 37.7724 14.5044H46.0869ZM46.0869 13.683H37.7724C35.2887 13.6876 33.2766 15.5898 33.2719 17.9376V21.6501C33.291 36.1071 45.6859 47.8208 60.9782 47.8343H65.114C67.5974 47.8298 69.6094 45.9277 69.6143 43.5798V35.7689C69.6094 33.4211 67.5974 31.5189 65.114 31.5144H60.9782C55.2203 31.5144 50.5526 27.1016 50.5526 21.6583V17.9376C50.5477 15.5898 48.5356 13.6876 46.0522 13.683H46.0869Z"
		fill="white" />
	<path
		d="M37.9381 65.4545C35.6945 65.45 33.8768 63.7315 33.872 61.6106V57.594C33.8673 51.957 29.0445 47.383 23.0814 47.3601H18.9197C16.6761 47.3557 14.8585 45.6376 14.8537 43.5166V35.6644C14.8537 33.5401 16.6727 31.8168 18.9197 31.8123H23.0814C38.1238 31.844 50.3044 43.3737 50.3186 57.594V61.6106C50.3138 63.7315 48.4961 65.45 46.2525 65.4545H37.9381Z"
		fill="white" />
	<path
		d="M23.0807 32.2216C37.8812 32.2578 49.8646 43.6009 49.8837 57.593V61.6092C49.8789 63.5036 48.2556 65.0381 46.2518 65.0426H37.9374C35.9336 65.0381 34.3106 63.5036 34.3058 61.6092V57.593C34.3058 54.761 33.1158 52.0452 30.9977 50.0428C28.8795 48.0404 26.0067 46.9154 23.0112 46.9154H18.9191C16.9167 46.9292 15.2805 45.4079 15.2614 43.5152V35.663C15.2614 33.7656 16.8859 32.2262 18.893 32.2216H23.0807ZM23.0807 31.4003H18.9191C17.7202 31.396 16.5688 31.8431 15.7194 32.643C14.87 33.4429 14.3926 34.5297 14.3926 35.663V43.5152C14.3926 44.6436 14.8667 45.7257 15.7107 46.5236C16.5547 47.3214 17.6994 47.7696 18.893 47.7696H23.0807C28.8387 47.7696 33.5065 52.1825 33.5065 57.6259V61.642C33.5113 63.9899 35.5233 65.8923 38.007 65.8968H46.3215C48.8049 65.8923 50.8173 63.9899 50.8218 61.642V57.593C50.8028 43.122 38.3882 31.4003 23.0807 31.4003Z"
		fill="white" />
	<path
		d="M154.72 37.0301C160.719 37.0301 165.582 41.6276 165.582 47.2989C165.582 52.9703 160.719 57.5678 154.72 57.5678C148.721 57.5678 143.858 52.9703 143.858 47.2989C143.858 41.6276 148.721 37.0301 154.72 37.0301ZM154.72 33.2884C148.723 33.2862 143.314 36.7002 141.018 41.9382C138.722 47.1762 139.99 53.2058 144.231 57.215C148.472 61.2243 154.85 62.4229 160.391 60.2521C165.931 58.0813 169.543 52.9689 169.54 47.2989C169.534 39.5626 162.904 33.2918 154.72 33.2831V33.2884Z"
		fill="black" />
	<path
		d="M104.886 33.4686H94.8793C94.5213 33.4686 94.4936 33.4316 94.4936 33.3893V24.3467C94.4981 24.0799 94.3892 23.8226 94.1921 23.632C93.9945 23.4413 93.7246 23.3333 93.4425 23.3319H91.6757C91.3937 23.3333 91.1237 23.4413 90.9265 23.632C90.729 23.8226 90.6205 24.0799 90.6247 24.3467V46.9666C90.6247 54.5929 97.2161 61.2941 105.283 61.3311C109.211 61.3425 112.981 59.8721 115.758 57.2458C118.535 54.6199 120.089 51.055 120.076 47.3418C120.042 39.6733 112.959 33.4686 104.886 33.4686ZM105.445 57.6528C99.3293 57.6898 94.5102 52.759 94.5102 46.9981V37.1999C94.5088 37.1792 94.5164 37.1591 94.531 37.1439C94.5459 37.129 94.5667 37.1204 94.5885 37.1204H104.959C111.052 37.1204 116.268 41.6919 116.229 47.4528C116.177 53.0723 111.362 57.6107 105.417 57.6421L105.445 57.6528Z"
		fill="black" />
	<path
		d="M199.332 23.2897H170.686C170.064 23.304 169.567 23.785 169.568 24.3732V25.8582C169.56 26.1431 169.675 26.4188 169.885 26.6228C170.096 26.8268 170.385 26.9418 170.686 26.9417H181.934C182.236 26.9416 182.524 27.0565 182.735 27.2605C182.945 27.4645 183.06 27.7402 183.052 28.0251V59.455C183.067 60.0432 183.576 60.5122 184.198 60.5122H185.775C186.386 60.498 186.878 60.0329 186.893 59.455V28.0462C186.885 27.7567 187.003 27.4768 187.22 27.272C187.437 27.0673 187.733 26.9555 188.039 26.9628H199.332C199.633 26.9699 199.925 26.8617 200.14 26.6627C200.356 26.4637 200.478 26.1908 200.478 25.9058V24.3732C200.478 23.7748 199.965 23.2897 199.332 23.2897Z"
		fill="black" />
	<path
		d="M130.541 33.4215H129.428C128.669 33.4215 128.053 34.0359 128.053 34.7939V59.9329C128.053 60.691 128.669 61.3052 129.428 61.3052H130.541C131.3 61.3052 131.916 60.691 131.916 59.9329V34.7939C131.916 34.0359 131.3 33.4215 130.541 33.4215Z"
		fill="black" />
	<path
		d="M129.987 28.587C131.901 28.587 133.453 27.0386 133.453 25.1286C133.453 23.2187 131.901 21.6703 129.987 21.6703C128.073 21.6703 126.522 23.2187 126.522 25.1286C126.522 27.0386 128.073 28.587 129.987 28.587Z"
		fill="black" />
</svg>